<svg xmlns="http://www.w3.org/2000/svg" xmlns:xlink="http://www.w3.org/1999/xlink" id="Layer_1" x="0" y="0" viewBox="0 0 475 30" style="enable-background:new 0 0 475 30" xml:space="preserve"><style type="text/css">.st0{fill:#020203}.st1{fill:#d41216}</style><path d="M52.5,11.9c0-6.3-4.6-8.2-10.1-8.2h-9.6V29h6.7v-8.5h2.6l4.4,8.5h7.4l-5.5-9.9C50.8,17.8,52.5,15.5,52.5,11.9z M41.9,15.2h-2.4V9h2.4c2.6,0,4,0.7,4,2.9C45.9,14.1,44.5,15.2,41.9,15.2z" class="st0"/><path d="M64.7,9.1c-4.7,0-9.3,3.9-9.3,10.2c0,6.5,4.4,10.2,10,10.2c2.5-0.1,5-0.8,7.1-2.3l-2.2-4 c-1.2,0.7-2.6,1.1-4,1.2c-2.2,0-3.9-0.8-4.5-3.1h11.1c0.2-0.9,0.3-1.9,0.3-2.8C73.1,13.3,70.4,9.1,64.7,9.1z M61.7,17 c0.1-1.6,1.5-2.8,3.1-2.8c2,0,2.6,1.3,2.6,2.8H61.7z" class="st0"/><path d="M84.1,14c1.5,0.1,2.8,0.7,4,1.6l3-4c-2-1.6-4.5-2.5-7.1-2.6c-4.5,0-7.7,2.5-7.7,6.3c0,3.2,2.6,4.9,4.9,5.8 c1.9,0.8,3.7,1.2,3.7,2.3c0,0.8-0.5,1.2-1.9,1.2c-1.7-0.1-3.4-0.8-4.7-1.9l-3,4.1c2.2,1.7,4.8,2.6,7.5,2.7c5.4,0,8.3-3,8.3-6.5 s-2.6-5-5-5.8c-1.9-0.7-3.7-1.1-3.7-2.1C82.4,14.3,83.1,14,84.1,14z" class="st0"/><path d="M102.7,9.1c-4.7,0-9.3,3.9-9.3,10.2c0,6.5,4.4,10.2,10,10.2c2.5-0.1,5-0.8,7.1-2.3l-2.2-4 c-1.2,0.7-2.6,1.1-4,1.2c-2.2,0-3.9-0.8-4.5-3.1h11.1c0.2-0.9,0.3-1.9,0.3-2.8C111.2,13.3,108.5,9.1,102.7,9.1z M105.5,17h-5.8 c0.1-1.6,1.5-2.8,3.1-2.8c0.2,0,0.4,0,0.6,0C104.8,14.4,105.7,15.7,105.5,17z" class="st0"/><path d="M122.7,9.1c-3,0-6,0.9-8.6,2.6l2.3,4.4c1.5-0.9,3.2-1.5,4.9-1.6c1.7,0,2.6,0.6,2.7,2c-7.5,0.8-10.6,3-10.6,7.1 c0,0.1,0,0.3,0,0.4c0,3.2,2.6,5.7,5.8,5.6c2-0.1,3.9-0.9,5.4-2.3h0.2l0.5,1.9h5.5V18.2C130.7,11.8,127.7,9.1,122.7,9.1z M121.7,24.3 c-1.2,0-1.8-0.5-1.8-1.4c0-1.1,1-2.1,4.2-2.6V23h0C123.5,23.8,122.6,24.3,121.7,24.3z" class="st0"/><path d="M141.2,12.9H141l-0.5-3.3h-5.5l0,19.5h6.7V18.2c0.9-2.4,2.6-3.3,4-3.3c0.7,0,1.5,0.1,2.2,0.3l1.1-5.8 c-0.8-0.3-1.6-0.4-2.4-0.4C144.3,9.3,142.2,10.7,141.2,12.9z" class="st0"/><path d="M160.5,24.1c-2.1,0-3.7-1.9-3.7-4.8c0-3,1.5-4.8,4-4.8c0.8,0,1.6,0.4,2.2,0.9l3.1-4.3c-1.6-1.3-3.6-2.1-5.7-2 c-5.5,0-10.4,3.7-10.4,10.2c0,6.5,4.3,10.2,9.8,10.2c2.4,0,4.6-0.8,6.5-2.3l-2.6-4.4C162.8,23.6,161.7,24,160.5,24.1z" class="st0"/><path d="M181.5,9c-2.2,0.1-4.3,0.9-5.8,2.5l0.3-3.3V1.9h-6.7l0.1,27.1h6.7V16.2c0.7-0.9,1.8-1.4,3-1.5 c1.3,0,1.9,0.6,1.9,3.1V29h6.6V17C187.6,12.2,185.8,9,181.5,9z" class="st0"/><path d="M199.9,3.4h-6.5V29h1.8V18h4.8c5.7,0,9.1-2.4,9.1-7.5C209.2,5.2,205.7,3.4,199.9,3.4z M199.6,16.5l-4.4,0V4.9 h4.2c5.3,0,7.9,1.4,7.9,5.6C207.4,14.8,204.9,16.5,199.6,16.5z" class="st0"/><path d="M216.4,13.8L216.4,13.8l-0.3-3.5h-1.5V29h1.7V16.3c1.4-3.5,3.4-4.8,5.1-4.8c0.6,0,1.2,0.1,1.7,0.3l0.4-1.6 c-0.6-0.3-1.2-0.4-1.8-0.4C219.4,9.9,217.6,11.5,216.4,13.8z" class="st0"/><path d="M233.4,9.8c-4.5,0-8.4,3.6-8.4,9.8c0,6.2,3.9,9.8,8.4,9.8c4.5,0,8.4-3.5,8.4-9.8 C241.8,13.4,237.9,9.8,233.4,9.8z M233.4,27.9c-3.8,0-6.6-3.3-6.6-8.2c0-4.9,2.8-8.3,6.6-8.3c3.8,0,6.6,3.4,6.6,8.3 C240,24.7,237.1,27.9,233.4,27.9z" class="st0"/><path d="M247.5,6.1l0,4.2l-2.6,0.2v1.3h2.6l0,17.2h1.7V11.8h4.3v-1.5h-4.3V6.2c0-2.7,0.9-4.2,2.9-4.2 c0.8,0,1.5,0.2,2.2,0.5l0.5-1.4c-0.9-0.4-1.8-0.6-2.7-0.6C249.2,0.5,247.5,2.4,247.5,6.1z" class="st0"/><path d="M263.7,9.8c-4.2,0-8.1,3.8-8.1,9.8c0,6.1,3.9,9.8,8.6,9.8c2.1,0,4.2-0.6,5.9-1.8l-0.7-1.3 c-1.5,1.1-3.2,1.7-5,1.7c-4.2,0-7-3.4-7-8.1h13.4c0.1-0.5,0.1-0.9,0.1-1.4C270.8,13,268.1,9.8,263.7,9.8z M257.4,18.5 c0.4-4.5,3.2-7.1,6.4-7.1c3.3,0,5.5,2.4,5.5,7.1H257.4z" class="st0"/><path d="M280.6,18.5c-2.2-0.8-4.4-1.7-4.4-3.8c0-1.7,1.3-3.4,4.2-3.4c1.6,0,3.2,0.6,4.5,1.7l0.9-1.2 c-1.5-1.2-3.4-1.9-5.3-1.9c-3.9,0-6,2.3-6,5c0,3.2,3.1,4.3,5.9,5.3c2.2,0.8,4.6,1.8,4.6,4.1c0,2-1.5,3.7-4.5,3.7 c-2.2,0-4.3-0.9-5.9-2.4l-1,1.2c1.9,1.6,4.3,2.6,6.8,2.6c4,0,6.3-2.5,6.3-5.3C286.7,20.6,283.5,19.6,280.6,18.5z" class="st0"/><path d="M296.4,18.5c-2.2-0.8-4.4-1.7-4.4-3.8c0-1.7,1.3-3.4,4.2-3.4c1.6,0,3.2,0.6,4.5,1.7l0.9-1.2 c-1.5-1.2-3.4-1.9-5.3-1.9c-3.9,0-6,2.3-6,5c0,3.2,3.1,4.3,6,5.3c2.2,0.8,4.6,1.8,4.6,4.1c0,2-1.5,3.7-4.5,3.7 c-2.2,0-4.3-0.8-5.9-2.4l-1,1.2c1.9,1.6,4.3,2.6,6.8,2.6c4,0,6.3-2.4,6.3-5.3C302.4,20.5,299.2,19.6,296.4,18.5z" class="st0"/><rect width="1.7" height="18.7" x="307.4" y="10.3" class="st0"/><path d="M308.4,2.9c-0.9-0.1-1.6,0.6-1.7,1.4c0.1,0.8,0.7,1.4,1.4,1.4c0.9,0.1,1.6-0.6,1.7-1.4 C309.8,3.5,309.2,2.9,308.4,2.9z" class="st0"/><path d="M323.1,9.8c-4.5,0-8.4,3.6-8.4,9.8c0,6.2,3.9,9.8,8.4,9.8c4.5,0,8.4-3.5,8.4-9.8 C331.5,13.4,327.6,9.8,323.1,9.8z M329.7,19.7c0,5-2.7,8.2-6.6,8.2s-6.6-3.3-6.6-8.2c0-4.9,2.8-8.3,6.6-8.3 C326.9,11.4,329.7,14.8,329.7,19.7L329.7,19.7z" class="st0"/><path d="M345.2,9.9c-2.6,0-4.5,1.5-6.4,3.4h-0.1l-0.2-2.9h-1.5l0,18.7h1.7V14.9c2.3-2.3,3.9-3.5,6.1-3.5 c3,0,4.3,1.9,4.3,5.8V29h1.7V17C350.9,12.2,349.1,9.9,345.2,9.9z" class="st0"/><path d="M364.3,9.9c-2.5,0.1-4.9,0.9-6.9,2.4l0.8,1.3c1.7-1.3,3.8-2.1,6-2.2c3.6,0,4.4,3.1,4.4,5.9 c-8.3,0.9-12,2.9-12,7c0,3.5,2.5,5.1,5.4,5.2c2.5,0,4.7-1.4,6.6-2.9h0.1l0.2,2.4h1.5v-12C370.2,13.1,368.7,9.9,364.3,9.9z M362.1,28 c-2.2,0-4-1-4-3.7c0-3,2.6-4.8,10.3-5.6V25h0C366.2,26.9,364.3,28,362.1,28z" class="st0"/><path d="M379.4,27.9c-0.5,0-0.8-0.4-0.8-1.2V1h-1.7v25.5c0,2,0.8,3,2.3,3c0.4,0,0.8-0.1,1.2-0.2l-0.3-1.4 C379.9,27.9,379.6,27.9,379.4,27.9z" class="st0"/><path d="M409.5,19.1c0,2.5,0.1,5,0.2,7.5h-0.2l-2.9-5.1L395.9,3.4h-1.9l0.1,25.7h1.7v-16c0-2.5-0.1-4.8-0.2-7.3h0.2 l2.9,5.1L409.3,29h1.8V3.4h-1.7V19.1z" class="st0"/><path d="M425.1,9.8c-4.2,0-8.1,3.8-8.1,9.8c0,6.1,3.9,9.8,8.6,9.7c2.1,0,4.2-0.6,5.9-1.8l-0.7-1.3 c-1.4,1.1-3.2,1.7-5,1.7c-4.2,0-7-3.3-7-8.1h13.4c0.1-0.5,0.1-0.9,0.1-1.4C432.3,13,429.5,9.8,425.1,9.8z M418.8,18.5 c0.4-4.5,3.2-7.1,6.4-7.1c3.3,0,5.5,2.4,5.5,7.1H418.8z" class="st0"/><path d="M454.6,22.4c-0.4,1.7-0.9,3.3-1.3,5h-0.2c-0.5-1.7-0.9-3.3-1.4-5l-3.4-12h-2l-3.4,12c-0.5,1.7-0.9,3.3-1.4,5 h-0.2c-0.4-1.7-0.8-3.3-1.3-5l-3.4-12h-1.8l5.5,18.7h2.1l3.2-11.5c0.6-1.8,1-3.6,1.5-5.4h0.2c0.5,1.8,0.9,3.5,1.4,5.3l3.3,11.6h2.3 l5.3-18.7h-1.7L454.6,22.4z" class="st0"/><path d="M468.9,18.5c-2.2-0.8-4.4-1.7-4.4-3.8c0-1.7,1.3-3.4,4.2-3.4c1.6,0,3.2,0.6,4.5,1.7l0.9-1.2 c-1.5-1.2-3.4-1.9-5.3-2c-3.9,0-6,2.3-6,5c0,3.2,3.1,4.3,6,5.3c2.2,0.8,4.6,1.8,4.6,4.1c0,2-1.5,3.7-4.5,3.7c-2.2,0-4.3-0.9-5.9-2.4 l-1,1.2c1.9,1.7,4.3,2.6,6.9,2.6c4,0,6.3-2.5,6.3-5.3C475,20.6,471.8,19.6,468.9,18.5z" class="st0"/><path d="M21.9,25.2c1-1.7,2-3.4,2.9-5.1c-2.4-1.2-4.8-2.5-7.3-3.8c2.5-1.3,4.9-2.5,7.3-3.8c-1-1.7-2-3.4-2.9-5.1 c-2.3,1.4-4.5,2.9-6.7,4.3c-0.1,0-0.1,0-0.2-0.1c0.1-2.7,0.2-5.3,0.3-8c-2,0-3.9,0-5.9,0c0.1,2.7,0.2,5.3,0.4,8.2 C7.5,10.4,5.3,8.9,3,7.5C2,9.2,1,10.8,0,12.6c2.4,1.2,4.8,2.5,7.3,3.8c-2.5,1.3-4.9,2.5-7.3,3.8c1,1.7,2,3.4,2.9,5.1 c2.3-1.4,4.5-2.9,6.7-4.3c0.1,0,0.1,0,0.2,0.1c-0.1,2.7-0.3,5.4-0.4,8.1c2,0,4,0,6,0c-0.1-2-0.2-4.1-0.3-6.1c0-0.7,0-1.3,0-2.1 C17.4,22.3,19.7,23.8,21.9,25.2z" class="st1"/></svg>